<svg width="351" height="109" viewBox="0 0 351 109" fill="none" xmlns="http://www.w3.org/2000/svg">
<path d="M54.3479 103.667V75.6115H77.3172V103.667H54.3479ZM100.286 18.5465V47.556H8.40939V3.62097L100.286 18.5465Z" fill="#1763CF" stroke="black" stroke-width="5.33333"/>
<path d="M100.286 47.556V18.5465L8.40939 3.62097V47.556H100.286ZM100.286 47.556H31.3786V103.667H100.286V47.556ZM54.3479 103.667V75.6115H77.3172V103.667H54.3479Z" stroke="black" stroke-width="5.33333" stroke-linecap="round" stroke-linejoin="round"/>
<path d="M8.40939 47.556V103.667" stroke="black" stroke-width="5.33333" stroke-linecap="round" stroke-linejoin="round"/>
<path d="M2.66708 2.66708L8.4094 3.62097L100.286 18.5465L106.029 19.5004" stroke="black" stroke-width="5.33333" stroke-linecap="round" stroke-linejoin="round"/>
<path d="M127.255 52.0655C127.932 51.8832 128.486 51.714 128.915 51.5577C129.358 51.4015 129.703 51.1866 129.95 50.9132C130.211 50.6397 130.387 50.2752 130.478 49.8194C130.569 49.3637 130.614 48.7452 130.614 47.964V26.5186L127.255 25.2296V23.628C128.31 23.7192 129.247 23.7712 130.068 23.7843C130.888 23.7843 131.637 23.7843 132.314 23.7843C133.264 23.7843 134.104 23.7647 134.833 23.7257C135.562 23.6736 136.272 23.6215 136.962 23.5694C137.665 23.5043 138.394 23.4457 139.15 23.3936C139.905 23.3416 140.784 23.3155 141.786 23.3155C143.232 23.3155 144.495 23.5434 145.575 23.9991C146.669 24.4418 147.581 25.0538 148.31 25.835C149.052 26.6163 149.605 27.5473 149.97 28.628C150.335 29.6957 150.517 30.8546 150.517 32.1046C150.517 33.1332 150.374 34.1098 150.087 35.0343C149.814 35.9457 149.43 36.7921 148.935 37.5733C148.44 38.3416 147.848 39.0382 147.157 39.6632C146.48 40.2752 145.738 40.8025 144.931 41.2452C144.124 41.6749 143.264 42.0069 142.353 42.2413C141.454 42.4757 140.536 42.5929 139.599 42.5929C139.286 42.5929 138.922 42.5864 138.505 42.5733C138.101 42.5473 137.678 42.5147 137.236 42.4757C136.793 42.4236 136.363 42.365 135.947 42.2999C135.53 42.2218 135.159 42.1371 134.833 42.046V50.9913L138.993 52.0655V53.6671H127.255V52.0655ZM134.833 39.214C135.38 39.4223 135.999 39.5981 136.689 39.7413C137.392 39.8715 138.127 39.9561 138.896 39.9952C139.677 40.0343 140.471 40.0212 141.279 39.9561C142.086 39.878 142.88 39.7283 143.661 39.5069C144.052 39.1423 144.404 38.7778 144.716 38.4132C145.042 38.0486 145.315 37.6254 145.536 37.1436C145.771 36.6619 145.947 36.089 146.064 35.4249C146.181 34.7478 146.239 33.9275 146.239 32.964C146.239 31.9223 146.103 30.9457 145.829 30.0343C145.556 29.1228 145.133 28.335 144.56 27.671C144 26.9939 143.29 26.46 142.431 26.0694C141.572 25.6788 140.556 25.4835 139.384 25.4835C138.642 25.4835 137.984 25.5356 137.411 25.6397C136.851 25.7309 136.376 25.9197 135.986 26.2061C135.608 26.4926 135.322 26.9028 135.126 27.4366C134.931 27.9574 134.833 28.6541 134.833 29.5265V39.214ZM153.368 52.0655C154.045 51.8832 154.592 51.714 155.009 51.5577C155.439 51.4015 155.764 51.1866 155.986 50.9132C156.207 50.6397 156.357 50.2752 156.435 49.8194C156.513 49.3637 156.552 48.7452 156.552 47.964V28.5304C156.552 27.8272 156.461 27.2869 156.279 26.9093C156.096 26.5186 155.849 26.2192 155.536 26.0108C155.237 25.8025 154.885 25.6528 154.482 25.5616C154.091 25.4705 153.681 25.3728 153.251 25.2686V23.8429C153.85 23.7257 154.371 23.6215 154.814 23.5304C155.256 23.4392 155.654 23.3481 156.005 23.2569C156.357 23.1658 156.682 23.0746 156.982 22.9835C157.294 22.8793 157.607 22.7621 157.919 22.6319C158.245 22.5017 158.59 22.352 158.954 22.1827C159.319 22.0004 159.742 21.7856 160.224 21.5382L160.947 21.9483C160.855 22.8598 160.79 23.8103 160.751 24.7999C160.712 25.7765 160.686 26.8442 160.673 28.003C160.66 29.1489 160.654 30.4184 160.654 31.8116C160.654 33.1918 160.654 34.7413 160.654 36.46C161.096 36.1996 161.565 35.9327 162.06 35.6593C162.476 35.4249 162.939 35.1645 163.447 34.878C163.967 34.5785 164.482 34.2856 164.989 33.9991C165.107 33.9731 165.295 33.921 165.556 33.8429C165.816 33.7647 166.122 33.6866 166.474 33.6085C166.825 33.5304 167.203 33.4653 167.607 33.4132C168.023 33.3481 168.44 33.3155 168.857 33.3155C169.807 33.3155 170.601 33.4132 171.239 33.6085C171.891 33.7908 172.418 34.0577 172.822 34.4093C173.238 34.7478 173.551 35.158 173.759 35.6397C173.98 36.1215 174.137 36.6489 174.228 37.2218C174.319 37.7947 174.364 38.4067 174.364 39.0577C174.377 39.6957 174.391 40.3598 174.404 41.0499L174.443 50.9913C174.885 51.1866 175.308 51.3559 175.712 51.4991C176.051 51.6293 176.396 51.753 176.747 51.8702C177.099 51.9874 177.379 52.0655 177.587 52.1046V53.6671H166.962V52.0655C167.665 51.8832 168.232 51.714 168.661 51.5577C169.104 51.4015 169.443 51.1866 169.677 50.9132C169.924 50.6397 170.094 50.2752 170.185 49.8194C170.276 49.3507 170.322 48.7192 170.322 47.9249V39.0772C170.322 38.5564 170.204 38.1332 169.97 37.8077C169.749 37.4822 169.456 37.2348 169.091 37.0655C168.739 36.8832 168.336 36.7595 167.88 36.6944C167.437 36.6293 166.995 36.5968 166.552 36.5968C165.94 36.5968 165.341 36.6489 164.755 36.753C164.169 36.8572 163.622 36.9874 163.114 37.1436C162.607 37.2999 162.138 37.4757 161.708 37.671C161.292 37.8663 160.94 38.0551 160.654 38.2374V50.9913L164.091 52.0655V53.6671H153.368V52.0655ZM179.97 52.0655C180.66 51.8832 181.22 51.714 181.65 51.5577C182.092 51.4015 182.437 51.1866 182.685 50.9132C182.945 50.6397 183.121 50.2752 183.212 49.8194C183.316 49.3637 183.368 48.7452 183.368 47.964V39.8975C183.368 39.2074 183.277 38.6475 183.095 38.2179C182.913 37.7752 182.672 37.4236 182.372 37.1632C182.073 36.8897 181.728 36.6814 181.337 36.5382C180.947 36.3949 180.543 36.2712 180.126 36.1671V34.7608C181.012 34.5916 181.793 34.4483 182.47 34.3311C183.147 34.2009 183.759 34.0772 184.306 33.96C184.853 33.8298 185.354 33.6866 185.81 33.5304C186.279 33.3611 186.747 33.1593 187.216 32.9249L187.939 33.296C187.848 33.8298 187.769 34.3507 187.704 34.8585C187.652 35.3663 187.607 35.8871 187.568 36.421C187.529 36.9418 187.502 37.4887 187.489 38.0616C187.476 38.6215 187.47 39.2205 187.47 39.8585V50.9913L191.025 52.0655V53.6671H179.97V52.0655ZM185.204 28.921C184.788 28.921 184.41 28.8494 184.072 28.7061C183.733 28.5629 183.447 28.3741 183.212 28.1397C182.978 27.8923 182.795 27.6124 182.665 27.2999C182.535 26.9744 182.47 26.6293 182.47 26.2647C182.47 25.9392 182.535 25.6137 182.665 25.2882C182.795 24.9496 182.997 24.6502 183.271 24.3897C183.544 24.1293 183.883 23.9145 184.286 23.7452C184.703 23.5759 185.185 23.4913 185.732 23.4913C186.096 23.4913 186.441 23.5564 186.767 23.6866C187.105 23.8038 187.392 23.9731 187.626 24.1944C187.874 24.4158 188.069 24.6892 188.212 25.0147C188.355 25.3272 188.427 25.6788 188.427 26.0694C188.427 26.4991 188.336 26.8897 188.154 27.2413C187.984 27.5798 187.75 27.8793 187.45 28.1397C187.151 28.3871 186.806 28.5824 186.415 28.7257C186.025 28.8559 185.621 28.921 185.204 28.921ZM193.368 52.0655C194.045 51.8832 194.592 51.714 195.009 51.5577C195.426 51.4015 195.745 51.1866 195.966 50.9132C196.187 50.6397 196.331 50.2752 196.396 49.8194C196.474 49.3637 196.513 48.7452 196.513 47.964V28.5304C196.513 27.8272 196.422 27.2869 196.239 26.9093C196.057 26.5186 195.816 26.2192 195.517 26.0108C195.217 25.8025 194.872 25.6528 194.482 25.5616C194.091 25.4705 193.681 25.3728 193.251 25.2686V23.8429C193.837 23.7257 194.351 23.6215 194.794 23.5304C195.237 23.4392 195.634 23.3481 195.986 23.2569C196.337 23.1658 196.663 23.0746 196.962 22.9835C197.262 22.8793 197.568 22.7621 197.88 22.6319C198.193 22.5017 198.531 22.352 198.896 22.1827C199.26 22.0004 199.683 21.7856 200.165 21.5382L200.888 21.9483C200.797 22.8598 200.732 23.8884 200.693 25.0343C200.654 26.1671 200.627 27.3585 200.614 28.6085C200.601 29.8455 200.595 31.102 200.595 32.378C200.608 33.6541 200.614 34.891 200.614 36.089V50.9913L203.974 52.0655V53.6671H193.368V52.0655ZM206.454 44.3702C206.454 42.6775 206.734 41.1541 207.294 39.7999C207.854 38.4327 208.603 37.2739 209.54 36.3233C210.491 35.3598 211.585 34.6176 212.822 34.0968C214.058 33.5759 215.354 33.3155 216.708 33.3155C218.18 33.3155 219.495 33.5043 220.654 33.8819C221.812 34.2595 222.789 34.839 223.583 35.6202C224.391 36.4015 225.002 37.3845 225.419 38.5694C225.836 39.7413 226.044 41.128 226.044 42.7296C226.044 44.4614 225.784 46.0304 225.263 47.4366C224.742 48.8298 224.032 50.0212 223.134 51.0108C222.236 52.0004 221.187 52.7621 219.989 53.296C218.792 53.8298 217.509 54.0968 216.142 54.0968C214.788 54.0968 213.518 53.9015 212.333 53.5108C211.161 53.1072 210.139 52.5082 209.267 51.714C208.394 50.9067 207.704 49.8975 207.197 48.6866C206.702 47.4627 206.454 46.0239 206.454 44.3702ZM211.025 43.4132C211.025 44.6241 211.116 45.7699 211.298 46.8507C211.493 47.9184 211.825 48.8494 212.294 49.6436C212.763 50.4249 213.394 51.0304 214.189 51.46C214.983 51.8897 215.992 52.0655 217.216 51.9874C218.062 51.9353 218.759 51.6684 219.306 51.1866C219.866 50.6918 220.302 50.0668 220.614 49.3116C220.94 48.5564 221.161 47.7166 221.279 46.7921C221.409 45.8676 221.474 44.9431 221.474 44.0186C221.474 42.8077 221.376 41.6684 221.181 40.6007C220.999 39.533 220.673 38.615 220.204 37.8468C219.736 37.0655 219.104 36.4666 218.31 36.0499C217.516 35.6202 216.513 35.4379 215.302 35.503C214.443 35.5551 213.739 35.809 213.193 36.2647C212.646 36.7205 212.21 37.3129 211.884 38.0421C211.558 38.7712 211.331 39.6046 211.2 40.5421C211.083 41.4666 211.025 42.4236 211.025 43.4132ZM228.564 52.0655L231.532 51.0108L233.329 49.3702L237.431 43.9796L231.689 36.3624L228.525 35.3468L228.466 33.7452H238.486V35.3272C237.991 35.4184 237.548 35.5095 237.157 35.6007C236.767 35.6788 236.428 35.783 236.142 35.9132L240.224 41.3624L243.974 36.0304L241.845 35.3468L241.825 33.7452H250.224L250.107 35.3272C249.703 35.4574 249.345 35.5681 249.032 35.6593C248.733 35.7374 248.46 35.8025 248.212 35.8546C247.965 35.9067 247.737 35.9522 247.529 35.9913C247.333 36.0173 247.138 36.0434 246.943 36.0694L241.747 43.1202L247.88 51.2061L250.4 52.085V53.6671H240.966V52.0655L243.271 51.1085L238.974 45.7179L235.009 50.9327C235.126 51.0629 235.276 51.1736 235.458 51.2647C235.641 51.3559 235.862 51.4405 236.122 51.5186C236.383 51.5968 236.682 51.6814 237.021 51.7725C237.359 51.8637 237.75 51.9679 238.193 52.085L238.212 53.6671H228.505L228.564 52.0655ZM245.146 36.4015L244.989 36.3624L244.755 36.4015H245.146ZM252.333 43.9796C252.359 42.5473 252.607 41.1866 253.075 39.8975C253.557 38.6085 254.228 37.4757 255.087 36.4991C255.96 35.5225 257.008 34.7478 258.232 34.1749C259.456 33.602 260.836 33.3155 262.372 33.3155C263.622 33.3155 264.683 33.5108 265.556 33.9015C266.441 34.2791 267.164 34.8259 267.724 35.5421C268.284 36.2452 268.687 37.0981 268.935 38.1007C269.182 39.0903 269.293 40.197 269.267 41.421C269.254 41.6033 269.241 41.8181 269.228 42.0655C269.228 42.2999 269.221 42.5278 269.208 42.7491C269.195 42.9965 269.176 43.2569 269.15 43.5304H256.396C256.37 44.6502 256.454 45.6137 256.65 46.421C256.858 47.2153 257.131 47.8923 257.47 48.4522C257.822 49.0121 258.225 49.4614 258.681 49.7999C259.137 50.1384 259.599 50.3989 260.068 50.5811C260.549 50.7634 261.025 50.8871 261.493 50.9522C261.962 51.0043 262.392 51.0304 262.782 51.0304C263.355 50.8871 263.954 50.7309 264.579 50.5616C265.126 50.4184 265.732 50.2426 266.396 50.0343C267.06 49.8259 267.737 49.5916 268.427 49.3311L269.091 51.0108C268.375 51.4145 267.704 51.7856 267.079 52.1241C266.454 52.4496 265.849 52.7491 265.263 53.0225C264.69 53.283 264.13 53.5108 263.583 53.7061C263.049 53.9145 262.509 54.0903 261.962 54.2335C260.295 54.2335 258.85 53.9991 257.626 53.5304C256.415 53.0616 255.406 52.391 254.599 51.5186C253.805 50.6332 253.219 49.559 252.841 48.296C252.463 47.0199 252.294 45.5811 252.333 43.9796ZM256.396 41.4991C257.685 41.4861 258.785 41.46 259.697 41.421C260.608 41.3819 261.363 41.3429 261.962 41.3038C262.574 41.2647 263.056 41.2322 263.407 41.2061C263.759 41.1671 264.013 41.1345 264.169 41.1085C264.391 41.0824 264.56 40.9132 264.677 40.6007C264.807 40.2882 264.872 39.9627 264.872 39.6241C264.872 38.7387 264.723 37.99 264.423 37.378C264.124 36.766 263.713 36.2973 263.193 35.9718C262.672 35.6462 262.06 35.477 261.357 35.464C260.667 35.4379 259.931 35.5681 259.15 35.8546C258.993 35.9067 258.766 36.0434 258.466 36.2647C258.18 36.4861 257.887 36.8181 257.587 37.2608C257.288 37.7035 257.021 38.2765 256.786 38.9796C256.552 39.6697 256.422 40.5095 256.396 41.4991ZM272.802 52.0655C273.518 51.8442 274.085 51.6554 274.501 51.4991C274.931 51.3298 275.25 51.115 275.458 50.8546C275.68 50.5811 275.816 50.2231 275.868 49.7804C275.933 49.3377 275.966 48.7322 275.966 47.964V40.1319C275.966 39.4418 275.868 38.8884 275.673 38.4718C275.491 38.0421 275.243 37.71 274.931 37.4757C274.631 37.2283 274.286 37.0395 273.896 36.9093C273.505 36.7791 273.101 36.6619 272.685 36.5577V35.1515C273.284 35.0343 273.798 34.9366 274.228 34.8585C274.67 34.7673 275.068 34.6827 275.419 34.6046C275.771 34.5134 276.096 34.4223 276.396 34.3311C276.695 34.227 277.001 34.1163 277.314 33.9991C277.626 33.8689 277.965 33.7192 278.329 33.5499C278.694 33.3806 279.117 33.1723 279.599 32.9249L280.38 33.335L280.126 36.46C280.569 36.2127 281.031 35.9522 281.513 35.6788C281.93 35.4444 282.385 35.184 282.88 34.8975C283.388 34.6111 283.896 34.3246 284.404 34.0382C284.534 33.9991 284.723 33.9405 284.97 33.8624C285.217 33.7843 285.497 33.7061 285.81 33.628C286.135 33.5499 286.48 33.4783 286.845 33.4132C287.223 33.3481 287.594 33.3155 287.958 33.3155C288.948 33.3155 289.768 33.4132 290.419 33.6085C291.083 33.8038 291.617 34.0772 292.021 34.4288C292.424 34.7673 292.724 35.1775 292.919 35.6593C293.127 36.141 293.264 36.6619 293.329 37.2218C293.407 37.7817 293.447 38.3806 293.447 39.0186C293.447 39.6436 293.447 40.2817 293.447 40.9327L293.466 50.9913C293.961 51.1736 294.423 51.3364 294.853 51.4796C295.23 51.6098 295.601 51.7335 295.966 51.8507C296.331 51.9548 296.611 52.0265 296.806 52.0655V53.6671H286.239V52.0655C286.773 51.9093 287.223 51.7856 287.587 51.6944C287.952 51.5903 288.245 51.4861 288.466 51.3819C288.7 51.2647 288.876 51.1345 288.993 50.9913C289.124 50.835 289.208 50.6332 289.247 50.3858C289.299 50.1254 289.325 49.7999 289.325 49.4093C289.338 49.0186 289.345 48.5239 289.345 47.9249V38.7257C289.345 38.4653 289.306 38.2114 289.228 37.964C289.163 37.7166 289.078 37.5343 288.974 37.4171C288.818 37.2739 288.648 37.1502 288.466 37.046C288.297 36.9418 288.082 36.8572 287.822 36.7921C287.561 36.727 287.249 36.6814 286.884 36.6554C286.519 36.6163 286.083 36.5968 285.575 36.5968C285.029 36.5968 284.488 36.6554 283.954 36.7725C283.42 36.8767 282.913 37.0134 282.431 37.1827C281.949 37.339 281.506 37.5212 281.103 37.7296C280.699 37.9249 280.354 38.1137 280.068 38.296V50.9913L283.447 52.0655V53.6671H272.802V52.0655ZM298.993 52.0655C299.683 51.8832 300.243 51.714 300.673 51.5577C301.116 51.4015 301.461 51.1866 301.708 50.9132C301.969 50.6397 302.144 50.2752 302.236 49.8194C302.34 49.3637 302.392 48.7452 302.392 47.964V39.8975C302.392 39.2074 302.301 38.6475 302.118 38.2179C301.936 37.7752 301.695 37.4236 301.396 37.1632C301.096 36.8897 300.751 36.6814 300.361 36.5382C299.97 36.3949 299.566 36.2712 299.15 36.1671V34.7608C300.035 34.5916 300.816 34.4483 301.493 34.3311C302.17 34.2009 302.782 34.0772 303.329 33.96C303.876 33.8298 304.377 33.6866 304.833 33.5304C305.302 33.3611 305.771 33.1593 306.239 32.9249L306.962 33.296C306.871 33.8298 306.793 34.3507 306.728 34.8585C306.676 35.3663 306.63 35.8871 306.591 36.421C306.552 36.9418 306.526 37.4887 306.513 38.0616C306.5 38.6215 306.493 39.2205 306.493 39.8585V50.9913L310.048 52.0655V53.6671H298.993V52.0655ZM304.228 28.921C303.811 28.921 303.433 28.8494 303.095 28.7061C302.756 28.5629 302.47 28.3741 302.236 28.1397C302.001 27.8923 301.819 27.6124 301.689 27.2999C301.558 26.9744 301.493 26.6293 301.493 26.2647C301.493 25.9392 301.558 25.6137 301.689 25.2882C301.819 24.9496 302.021 24.6502 302.294 24.3897C302.568 24.1293 302.906 23.9145 303.31 23.7452C303.726 23.5759 304.208 23.4913 304.755 23.4913C305.12 23.4913 305.465 23.5564 305.79 23.6866C306.129 23.8038 306.415 23.9731 306.65 24.1944C306.897 24.4158 307.092 24.6892 307.236 25.0147C307.379 25.3272 307.45 25.6788 307.45 26.0694C307.45 26.4991 307.359 26.8897 307.177 27.2413C307.008 27.5798 306.773 27.8793 306.474 28.1397C306.174 28.3871 305.829 28.5824 305.439 28.7257C305.048 28.8559 304.644 28.921 304.228 28.921ZM312.529 48.7061C312.529 48.1593 312.574 47.658 312.665 47.2022C312.769 46.7465 312.965 46.3233 313.251 45.9327C313.551 45.5291 313.967 45.1515 314.501 44.7999C315.048 44.4353 315.758 44.0772 316.63 43.7257C317.516 43.3741 318.59 43.016 319.853 42.6515C321.116 42.2869 322.626 41.8962 324.384 41.4796V38.4913C324.384 38.1267 324.358 37.7817 324.306 37.4561C324.267 37.1176 324.13 36.8246 323.896 36.5772C323.661 36.3168 323.297 36.1085 322.802 35.9522C322.32 35.783 321.643 35.6918 320.771 35.6788C320.146 35.6788 319.625 35.7699 319.208 35.9522C318.792 36.1215 318.433 36.3884 318.134 36.753C317.848 37.1176 317.594 37.5733 317.372 38.1202C317.164 38.6541 316.949 39.2791 316.728 39.9952H313.603L314.013 35.9718C314.443 35.7895 314.911 35.5942 315.419 35.3858C315.927 35.1775 316.441 34.9757 316.962 34.7804C317.496 34.585 318.023 34.4028 318.544 34.2335C319.065 34.0512 319.547 33.8949 319.989 33.7647C320.445 33.6215 320.849 33.5108 321.2 33.4327C321.552 33.3546 321.825 33.3155 322.021 33.3155C323.193 33.3155 324.182 33.4067 324.989 33.589C325.81 33.7712 326.48 34.0837 327.001 34.5265C327.522 34.9561 327.9 35.5356 328.134 36.2647C328.368 36.9809 328.486 37.8728 328.486 38.9405V50.171C328.486 50.5225 328.642 50.7765 328.954 50.9327C329.267 51.089 329.605 51.1931 329.97 51.2452C330.348 51.2973 330.693 51.3233 331.005 51.3233C331.318 51.3233 331.474 51.3364 331.474 51.3624V52.9835C331.213 53.0877 330.907 53.2048 330.556 53.335C330.217 53.4522 329.853 53.5629 329.462 53.6671C329.072 53.7712 328.674 53.8624 328.271 53.9405C327.88 54.0186 327.502 54.0577 327.138 54.0577C326.213 54.0577 325.556 53.8168 325.165 53.335C324.775 52.8533 324.579 52.1176 324.579 51.128C323.954 51.6489 323.401 52.0981 322.919 52.4757C322.45 52.8403 321.988 53.1397 321.532 53.3741C321.09 53.6085 320.614 53.7778 320.107 53.8819C319.599 53.9991 319.006 54.0577 318.329 54.0577C317.652 54.0577 316.969 53.9535 316.279 53.7452C315.588 53.5369 314.963 53.2179 314.404 52.7882C313.857 52.3455 313.407 51.7856 313.056 51.1085C312.704 50.4314 312.529 49.6306 312.529 48.7061ZM316.825 48.2179C316.825 48.7387 316.917 49.1879 317.099 49.5655C317.294 49.9301 317.555 50.2361 317.88 50.4835C318.206 50.7179 318.59 50.8936 319.032 51.0108C319.488 51.115 319.97 51.1671 320.478 51.1671C321.181 51.1671 321.871 50.9848 322.548 50.6202C323.225 50.2426 323.837 49.7934 324.384 49.2725V43.4718C323.915 43.641 323.401 43.7973 322.841 43.9405C322.281 44.0707 321.721 44.214 321.161 44.3702C320.601 44.5134 320.061 44.6827 319.54 44.878C319.019 45.0733 318.557 45.3207 318.154 45.6202C317.75 45.9067 317.424 46.2647 317.177 46.6944C316.943 47.1111 316.825 47.6189 316.825 48.2179Z" fill="#1763CF"/>
<path d="M129.208 82.921L131.435 82.96L132.255 87.4522C132.333 87.7387 132.411 87.9731 132.489 88.1554C132.568 88.3246 132.646 88.4614 132.724 88.5655C132.815 88.6697 132.9 88.7543 132.978 88.8194C133.056 88.8715 133.127 88.9171 133.193 88.9561C133.479 89.0994 133.876 89.2621 134.384 89.4444C134.892 89.6137 135.458 89.7765 136.083 89.9327C136.708 90.089 137.359 90.2192 138.036 90.3233C138.713 90.4275 139.377 90.4796 140.029 90.4796C140.588 90.4796 141.096 90.4145 141.552 90.2843C142.008 90.1541 142.418 89.9913 142.782 89.796C143.147 89.6007 143.466 89.3858 143.739 89.1515C144.026 88.9041 144.28 88.6697 144.501 88.4483C144.566 88.3311 144.638 88.1814 144.716 87.9991C144.794 87.8038 144.866 87.5955 144.931 87.3741C145.009 87.1397 145.074 86.8923 145.126 86.6319C145.178 86.3715 145.204 86.1176 145.204 85.8702C145.204 84.8546 144.97 84.0082 144.501 83.3311C144.032 82.641 143.407 82.0551 142.626 81.5733C141.858 81.0916 140.979 80.6749 139.989 80.3233C139.013 79.9587 138.01 79.5942 136.982 79.2296C135.953 78.865 134.944 78.4614 133.954 78.0186C132.978 77.5629 132.099 77.003 131.318 76.339C130.549 75.6749 129.931 74.8741 129.462 73.9366C128.993 72.9861 128.759 71.8207 128.759 70.4405C128.759 69.477 128.915 68.6111 129.228 67.8429C129.54 67.0746 129.97 66.391 130.517 65.7921C131.064 65.1931 131.702 64.6788 132.431 64.2491C133.173 63.8194 133.967 63.4679 134.814 63.1944C135.673 62.921 136.565 62.7192 137.489 62.589C138.414 62.4587 139.338 62.3936 140.263 62.3936C141.018 62.3936 141.689 62.4262 142.275 62.4913C142.861 62.5434 143.427 62.6215 143.974 62.7257C144.521 62.8168 145.087 62.921 145.673 63.0382C146.259 63.1554 146.923 63.266 147.665 63.3702L147.099 71.1046H145.009L144.228 67.8429C144.163 67.5434 144.085 67.296 143.993 67.1007C143.915 66.8923 143.818 66.7166 143.7 66.5733C143.583 66.4171 143.453 66.2934 143.31 66.2022C143.167 66.0981 143.004 66.0004 142.822 65.9093C142.275 65.6879 141.617 65.4926 140.849 65.3233C140.094 65.1541 139.247 65.0694 138.31 65.0694C137.529 65.0694 136.812 65.1215 136.161 65.2257C135.523 65.3168 134.976 65.4926 134.521 65.753C134.377 65.9353 134.202 66.1176 133.993 66.2999C133.798 66.4822 133.609 66.7035 133.427 66.964C133.258 67.2244 133.108 67.5434 132.978 67.921C132.861 68.2856 132.802 68.7413 132.802 69.2882C132.802 70.3559 133.036 71.2478 133.505 71.964C133.974 72.6671 134.592 73.266 135.361 73.7608C136.129 74.2426 137.001 74.6528 137.978 74.9913C138.954 75.3298 139.95 75.6684 140.966 76.0069C141.995 76.3455 142.997 76.7231 143.974 77.1397C144.95 77.5434 145.823 78.0512 146.591 78.6632C147.359 79.2752 147.978 80.0304 148.447 80.9288C148.915 81.8272 149.15 82.934 149.15 84.2491C149.15 85.9158 148.818 87.322 148.154 88.4679C147.489 89.6007 146.591 90.5121 145.458 91.2022C144.325 91.8923 143.01 92.3871 141.513 92.6866C140.029 92.9861 138.46 93.1358 136.806 93.1358C136.142 93.1358 135.439 93.0707 134.697 92.9405C133.967 92.8103 133.232 92.6345 132.489 92.4132C131.76 92.1918 131.044 91.9379 130.341 91.6515C129.638 91.352 128.974 91.0395 128.349 90.714L129.208 82.921ZM155.712 75.3819H152.626V73.4093L154.54 72.6866C154.918 72.5434 155.237 72.3481 155.497 72.1007C155.771 71.8403 155.947 71.6124 156.025 71.4171L157.529 67.6671H159.95L159.814 72.7452H166.044V75.3819H159.814V87.9796C159.814 88.6046 159.983 89.0538 160.322 89.3272C160.673 89.5877 161.161 89.7179 161.786 89.7179C162.138 89.7179 162.529 89.6788 162.958 89.6007C163.388 89.5225 163.818 89.4249 164.247 89.3077C164.677 89.1775 165.094 89.0408 165.497 88.8975C165.901 88.7413 166.252 88.5916 166.552 88.4483L167.294 90.3233C166.825 90.6228 166.279 90.9418 165.654 91.2804C165.042 91.6189 164.404 91.9314 163.739 92.2179C163.075 92.5043 162.405 92.7387 161.728 92.921C161.064 93.1033 160.439 93.1944 159.853 93.1944C158.863 93.1944 158.088 93.0642 157.529 92.8038C156.982 92.5564 156.572 92.1788 156.298 91.671C156.025 91.1502 155.855 90.4991 155.79 89.7179C155.738 88.9366 155.712 88.0186 155.712 86.964V75.3819ZM169.404 87.7061C169.404 87.1593 169.449 86.658 169.54 86.2022C169.644 85.7465 169.84 85.3233 170.126 84.9327C170.426 84.5291 170.842 84.1515 171.376 83.7999C171.923 83.4353 172.633 83.0772 173.505 82.7257C174.391 82.3741 175.465 82.016 176.728 81.6515C177.991 81.2869 179.501 80.8962 181.259 80.4796V77.4913C181.259 77.1267 181.233 76.7817 181.181 76.4561C181.142 76.1176 181.005 75.8246 180.771 75.5772C180.536 75.3168 180.172 75.1085 179.677 74.9522C179.195 74.783 178.518 74.6918 177.646 74.6788C177.021 74.6788 176.5 74.7699 176.083 74.9522C175.667 75.1215 175.308 75.3884 175.009 75.753C174.723 76.1176 174.469 76.5733 174.247 77.1202C174.039 77.6541 173.824 78.2791 173.603 78.9952H170.478L170.888 74.9718C171.318 74.7895 171.786 74.5942 172.294 74.3858C172.802 74.1775 173.316 73.9757 173.837 73.7804C174.371 73.585 174.898 73.4028 175.419 73.2335C175.94 73.0512 176.422 72.8949 176.864 72.7647C177.32 72.6215 177.724 72.5108 178.075 72.4327C178.427 72.3546 178.7 72.3155 178.896 72.3155C180.068 72.3155 181.057 72.4067 181.864 72.589C182.685 72.7712 183.355 73.0837 183.876 73.5265C184.397 73.9561 184.775 74.5356 185.009 75.2647C185.243 75.9809 185.361 76.8728 185.361 77.9405V89.171C185.361 89.5225 185.517 89.7765 185.829 89.9327C186.142 90.089 186.48 90.1931 186.845 90.2452C187.223 90.2973 187.568 90.3233 187.88 90.3233C188.193 90.3233 188.349 90.3364 188.349 90.3624V91.9835C188.088 92.0877 187.782 92.2048 187.431 92.335C187.092 92.4522 186.728 92.5629 186.337 92.6671C185.947 92.7712 185.549 92.8624 185.146 92.9405C184.755 93.0186 184.377 93.0577 184.013 93.0577C183.088 93.0577 182.431 92.8168 182.04 92.335C181.65 91.8533 181.454 91.1176 181.454 90.128C180.829 90.6489 180.276 91.0981 179.794 91.4757C179.325 91.8403 178.863 92.1397 178.407 92.3741C177.965 92.6085 177.489 92.7778 176.982 92.8819C176.474 92.9991 175.881 93.0577 175.204 93.0577C174.527 93.0577 173.844 92.9535 173.154 92.7452C172.463 92.5369 171.838 92.2179 171.279 91.7882C170.732 91.3455 170.282 90.7856 169.931 90.1085C169.579 89.4314 169.404 88.6306 169.404 87.7061ZM173.7 87.2179C173.7 87.7387 173.792 88.1879 173.974 88.5655C174.169 88.9301 174.43 89.2361 174.755 89.4835C175.081 89.7179 175.465 89.8936 175.907 90.0108C176.363 90.115 176.845 90.1671 177.353 90.1671C178.056 90.1671 178.746 89.9848 179.423 89.6202C180.1 89.2426 180.712 88.7934 181.259 88.2725V82.4718C180.79 82.641 180.276 82.7973 179.716 82.9405C179.156 83.0707 178.596 83.214 178.036 83.3702C177.476 83.5134 176.936 83.6827 176.415 83.878C175.894 84.0733 175.432 84.3207 175.029 84.6202C174.625 84.9067 174.299 85.2647 174.052 85.6944C173.818 86.1111 173.7 86.6189 173.7 87.2179ZM192.782 100.714C193.642 100.623 194.423 100.375 195.126 99.9718C195.842 99.5811 196.48 99.1059 197.04 98.546C197.6 97.9991 198.088 97.4067 198.505 96.7686C198.935 96.1306 199.293 95.5252 199.579 94.9522C199.879 94.3923 200.107 93.9041 200.263 93.4874C200.432 93.0707 200.536 92.7973 200.575 92.6671L200.673 92.4327L199.345 92.6671C198.655 90.9483 197.945 89.2752 197.216 87.6475C196.5 86.0069 195.797 84.4444 195.107 82.96C194.43 81.4627 193.779 80.0564 193.154 78.7413C192.529 77.4132 191.975 76.2022 191.493 75.1085L188.974 74.3468L188.915 72.7452H199.794L199.677 74.3272C199.143 74.4965 198.694 74.6462 198.329 74.7765C197.978 74.9067 197.685 75.0499 197.45 75.2061C197.216 75.3624 197.034 75.5512 196.904 75.7725C196.786 75.9809 196.695 76.2478 196.63 76.5733L200.536 86.3194C200.706 86.7882 200.868 87.1593 201.025 87.4327C201.181 87.6931 201.331 87.8884 201.474 88.0186C201.617 88.1358 201.76 88.1944 201.904 88.1944C202.06 88.1944 202.216 88.1554 202.372 88.0772L206.415 75.3819L202.919 74.3468L202.861 72.7452H212.665L212.548 74.3272C211.767 74.5095 211.103 74.7179 210.556 74.9522C210.022 75.1736 209.644 75.5056 209.423 75.9483C208.473 78.5265 207.633 80.7921 206.904 82.7452C206.174 84.6983 205.53 86.4171 204.97 87.9015C204.423 89.3728 203.941 90.6489 203.525 91.7296C203.108 92.8103 202.737 93.7608 202.411 94.5811C202.086 95.4015 201.793 96.1306 201.532 96.7686C201.272 97.4067 201.012 98.0252 200.751 98.6241C200.504 99.2361 200.243 99.8611 199.97 100.499C199.697 101.137 199.384 101.866 199.032 102.687H193.251L192.782 100.714ZM214.579 90.421C214.579 90.0434 214.651 89.6853 214.794 89.3468C214.937 88.9952 215.139 88.6892 215.4 88.4288C215.66 88.1554 215.966 87.9405 216.318 87.7843C216.669 87.628 217.053 87.5499 217.47 87.5499C217.9 87.5499 218.29 87.6345 218.642 87.8038C218.993 87.96 219.293 88.1749 219.54 88.4483C219.801 88.7087 220.002 89.0147 220.146 89.3663C220.289 89.7048 220.361 90.0564 220.361 90.421C220.361 90.7986 220.289 91.1567 220.146 91.4952C220.002 91.8337 219.801 92.1332 219.54 92.3936C219.293 92.6541 218.987 92.8624 218.622 93.0186C218.271 93.1749 217.887 93.253 217.47 93.253C217.053 93.253 216.669 93.1749 216.318 93.0186C215.966 92.8624 215.66 92.6541 215.4 92.3936C215.139 92.1332 214.937 91.8337 214.794 91.4952C214.651 91.1567 214.579 90.7986 214.579 90.421Z" fill="black"/>
</svg>
