<svg width="557" height="120" viewBox="0 0 557 120" fill="none" xmlns="http://www.w3.org/2000/svg">
<path d="M56.6671 105.417V76.8754H80.6671V105.417H56.6671ZM104.667 18.8217V48.3337H8.66707V3.63749L104.667 18.8217Z" fill="#1763CF" stroke="black" stroke-width="5.33333"/>
<path d="M104.667 48.3337V18.8217L8.66707 3.63749V48.3337H104.667ZM104.667 48.3337H32.6671V105.417H104.667V48.3337ZM56.6671 105.417V76.8754H80.6671V105.417H56.6671Z" stroke="black" stroke-width="5.33333" stroke-linecap="round" stroke-linejoin="round"/>
<path d="M8.66707 48.3337V105.417" stroke="black" stroke-width="5.33333" stroke-linecap="round" stroke-linejoin="round"/>
<path d="M2.66707 2.66707L8.66707 3.63748L104.667 18.8217L110.667 19.7921" stroke="black" stroke-width="5.33333" stroke-linecap="round" stroke-linejoin="round"/>
<path d="M141.679 47.0655C142.356 46.8832 142.909 46.7139 143.339 46.5577C143.782 46.4014 144.127 46.1866 144.374 45.9132C144.635 45.6397 144.81 45.2751 144.901 44.8194C144.993 44.3637 145.038 43.7452 145.038 42.9639V21.5186L141.679 20.2296V18.628C142.733 18.7192 143.671 18.7712 144.491 18.7843C145.312 18.7843 146.06 18.7843 146.737 18.7843C147.688 18.7843 148.528 18.7647 149.257 18.7257C149.986 18.6736 150.696 18.6215 151.386 18.5694C152.089 18.5043 152.818 18.4457 153.573 18.3936C154.329 18.3415 155.207 18.3155 156.21 18.3155C157.655 18.3155 158.918 18.5434 159.999 18.9991C161.093 19.4418 162.004 20.0538 162.733 20.835C163.476 21.6163 164.029 22.5473 164.394 23.628C164.758 24.6957 164.941 25.8546 164.941 27.1046C164.941 28.1332 164.797 29.1098 164.511 30.0343C164.237 30.9457 163.853 31.7921 163.358 32.5733C162.864 33.3415 162.271 34.0382 161.581 34.6632C160.904 35.2751 160.162 35.8025 159.355 36.2452C158.547 36.6749 157.688 37.0069 156.776 37.2413C155.878 37.4757 154.96 37.5928 154.023 37.5928C153.71 37.5928 153.345 37.5863 152.929 37.5733C152.525 37.5473 152.102 37.5147 151.659 37.4757C151.217 37.4236 150.787 37.365 150.37 37.2999C149.954 37.2218 149.582 37.1371 149.257 37.046V45.9913L153.417 47.0655V48.6671H141.679V47.0655ZM149.257 34.2139C149.804 34.4223 150.422 34.5981 151.112 34.7413C151.816 34.8715 152.551 34.9561 153.319 34.9952C154.101 35.0343 154.895 35.0212 155.702 34.9561C156.51 34.878 157.304 34.7283 158.085 34.5069C158.476 34.1423 158.827 33.7777 159.14 33.4132C159.465 33.0486 159.739 32.6254 159.96 32.1436C160.194 31.6619 160.37 31.0889 160.487 30.4249C160.605 29.7478 160.663 28.9275 160.663 27.9639C160.663 26.9223 160.526 25.9457 160.253 25.0343C159.98 24.1228 159.556 23.335 158.983 22.671C158.424 21.9939 157.714 21.46 156.855 21.0694C155.995 20.6788 154.98 20.4835 153.808 20.4835C153.066 20.4835 152.408 20.5356 151.835 20.6397C151.275 20.7309 150.8 20.9197 150.409 21.2061C150.032 21.4926 149.745 21.9027 149.55 22.4366C149.355 22.9574 149.257 23.654 149.257 24.5264V34.2139ZM167.792 47.0655C168.469 46.8832 169.016 46.7139 169.433 46.5577C169.862 46.4014 170.188 46.1866 170.409 45.9132C170.631 45.6397 170.78 45.2751 170.858 44.8194C170.937 44.3637 170.976 43.7452 170.976 42.9639V23.5303C170.976 22.8272 170.885 22.2869 170.702 21.9093C170.52 21.5186 170.273 21.2192 169.96 21.0108C169.661 20.8025 169.309 20.6527 168.905 20.5616C168.515 20.4705 168.105 20.3728 167.675 20.2686V18.8428C168.274 18.7257 168.795 18.6215 169.237 18.5303C169.68 18.4392 170.077 18.3481 170.429 18.2569C170.78 18.1658 171.106 18.0746 171.405 17.9835C171.718 17.8793 172.03 17.7621 172.343 17.6319C172.668 17.5017 173.013 17.352 173.378 17.1827C173.743 17.0004 174.166 16.7856 174.648 16.5382L175.37 16.9483C175.279 17.8598 175.214 18.8103 175.175 19.7999C175.136 20.7764 175.11 21.8442 175.097 23.003C175.084 24.1488 175.077 25.4184 175.077 26.8116C175.077 28.1918 175.077 29.7413 175.077 31.46C175.52 31.1996 175.989 30.9327 176.483 30.6593C176.9 30.4249 177.362 30.1645 177.87 29.878C178.391 29.5785 178.905 29.2856 179.413 28.9991C179.53 28.9731 179.719 28.921 179.98 28.8428C180.24 28.7647 180.546 28.6866 180.898 28.6085C181.249 28.5303 181.627 28.4652 182.03 28.4132C182.447 28.3481 182.864 28.3155 183.28 28.3155C184.231 28.3155 185.025 28.4132 185.663 28.6085C186.314 28.7908 186.842 29.0577 187.245 29.4093C187.662 29.7478 187.974 30.158 188.183 30.6397C188.404 31.1215 188.56 31.6488 188.651 32.2218C188.743 32.7947 188.788 33.4067 188.788 34.0577C188.801 34.6957 188.814 35.3598 188.827 36.0499L188.866 45.9913C189.309 46.1866 189.732 46.3559 190.136 46.4991C190.474 46.6293 190.819 46.753 191.171 46.8702C191.523 46.9874 191.802 47.0655 192.011 47.1046V48.6671H181.386V47.0655C182.089 46.8832 182.655 46.7139 183.085 46.5577C183.528 46.4014 183.866 46.1866 184.101 45.9132C184.348 45.6397 184.517 45.2751 184.608 44.8194C184.7 44.3507 184.745 43.7192 184.745 42.9249V34.0772C184.745 33.5564 184.628 33.1332 184.394 32.8077C184.172 32.4822 183.879 32.2348 183.515 32.0655C183.163 31.8832 182.76 31.7595 182.304 31.6944C181.861 31.6293 181.418 31.5968 180.976 31.5968C180.364 31.5968 179.765 31.6488 179.179 31.753C178.593 31.8572 178.046 31.9874 177.538 32.1436C177.03 32.2999 176.562 32.4757 176.132 32.671C175.715 32.8663 175.364 33.0551 175.077 33.2374V45.9913L178.515 47.0655V48.6671H167.792V47.0655ZM194.394 47.0655C195.084 46.8832 195.644 46.7139 196.073 46.5577C196.516 46.4014 196.861 46.1866 197.108 45.9132C197.369 45.6397 197.545 45.2751 197.636 44.8194C197.74 44.3637 197.792 43.7452 197.792 42.9639V34.8975C197.792 34.2074 197.701 33.6475 197.519 33.2178C197.336 32.7751 197.095 32.4236 196.796 32.1632C196.496 31.8897 196.151 31.6814 195.761 31.5382C195.37 31.3949 194.967 31.2712 194.55 31.1671V29.7608C195.435 29.5915 196.217 29.4483 196.894 29.3311C197.571 29.2009 198.183 29.0772 198.73 28.96C199.276 28.8298 199.778 28.6866 200.233 28.5303C200.702 28.3611 201.171 28.1593 201.64 27.9249L202.362 28.296C202.271 28.8298 202.193 29.3507 202.128 29.8585C202.076 30.3663 202.03 30.8871 201.991 31.421C201.952 31.9418 201.926 32.4887 201.913 33.0616C201.9 33.6215 201.894 34.2205 201.894 34.8585V45.9913L205.448 47.0655V48.6671H194.394V47.0655ZM199.628 23.921C199.211 23.921 198.834 23.8494 198.495 23.7061C198.157 23.5629 197.87 23.3741 197.636 23.1397C197.401 22.8923 197.219 22.6124 197.089 22.2999C196.959 21.9744 196.894 21.6293 196.894 21.2647C196.894 20.9392 196.959 20.6137 197.089 20.2882C197.219 19.9496 197.421 19.6501 197.694 19.3897C197.968 19.1293 198.306 18.9145 198.71 18.7452C199.127 18.5759 199.608 18.4913 200.155 18.4913C200.52 18.4913 200.865 18.5564 201.191 18.6866C201.529 18.8038 201.816 18.9731 202.05 19.1944C202.297 19.4158 202.493 19.6892 202.636 20.0147C202.779 20.3272 202.851 20.6788 202.851 21.0694C202.851 21.4991 202.76 21.8897 202.577 22.2413C202.408 22.5798 202.174 22.8793 201.874 23.1397C201.575 23.3871 201.23 23.5824 200.839 23.7257C200.448 23.8559 200.045 23.921 199.628 23.921ZM207.792 47.0655C208.469 46.8832 209.016 46.7139 209.433 46.5577C209.849 46.4014 210.168 46.1866 210.39 45.9132C210.611 45.6397 210.754 45.2751 210.819 44.8194C210.898 44.3637 210.937 43.7452 210.937 42.9639V23.5303C210.937 22.8272 210.845 22.2869 210.663 21.9093C210.481 21.5186 210.24 21.2192 209.941 21.0108C209.641 20.8025 209.296 20.6527 208.905 20.5616C208.515 20.4705 208.105 20.3728 207.675 20.2686V18.8428C208.261 18.7257 208.775 18.6215 209.218 18.5303C209.661 18.4392 210.058 18.3481 210.409 18.2569C210.761 18.1658 211.086 18.0746 211.386 17.9835C211.685 17.8793 211.991 17.7621 212.304 17.6319C212.616 17.5017 212.955 17.352 213.319 17.1827C213.684 17.0004 214.107 16.7856 214.589 16.5382L215.312 16.9483C215.22 17.8598 215.155 18.8884 215.116 20.0343C215.077 21.1671 215.051 22.3585 215.038 23.6085C215.025 24.8455 215.019 26.102 215.019 27.378C215.032 28.654 215.038 29.891 215.038 31.0889V45.9913L218.398 47.0655V48.6671H207.792V47.0655ZM220.878 39.3702C220.878 37.6775 221.158 36.154 221.718 34.7999C222.278 33.4327 223.026 32.2738 223.964 31.3233C224.914 30.3598 226.008 29.6176 227.245 29.0968C228.482 28.5759 229.778 28.3155 231.132 28.3155C232.603 28.3155 233.918 28.5043 235.077 28.8819C236.236 29.2595 237.213 29.8389 238.007 30.6202C238.814 31.4014 239.426 32.3845 239.843 33.5694C240.26 34.7413 240.468 36.128 240.468 37.7296C240.468 39.4613 240.207 41.0303 239.687 42.4366C239.166 43.8298 238.456 45.0212 237.558 46.0108C236.659 47.0004 235.611 47.7621 234.413 48.296C233.215 48.8298 231.933 49.0968 230.566 49.0968C229.211 49.0968 227.942 48.9014 226.757 48.5108C225.585 48.1072 224.563 47.5082 223.691 46.7139C222.818 45.9067 222.128 44.8975 221.62 43.6866C221.125 42.4626 220.878 41.0238 220.878 39.3702ZM225.448 38.4132C225.448 39.6241 225.539 40.7699 225.722 41.8507C225.917 42.9184 226.249 43.8494 226.718 44.6436C227.187 45.4249 227.818 46.0303 228.612 46.46C229.407 46.8897 230.416 47.0655 231.64 46.9874C232.486 46.9353 233.183 46.6684 233.73 46.1866C234.289 45.6918 234.726 45.0668 235.038 44.3116C235.364 43.5564 235.585 42.7165 235.702 41.7921C235.832 40.8676 235.898 39.9431 235.898 39.0186C235.898 37.8077 235.8 36.6684 235.605 35.6007C235.422 34.533 235.097 33.615 234.628 32.8468C234.159 32.0655 233.528 31.4665 232.733 31.0499C231.939 30.6202 230.937 30.4379 229.726 30.503C228.866 30.5551 228.163 30.809 227.616 31.2647C227.069 31.7205 226.633 32.3129 226.308 33.0421C225.982 33.7712 225.754 34.6046 225.624 35.5421C225.507 36.4665 225.448 37.4236 225.448 38.4132ZM242.987 47.0655L245.956 46.0108L247.753 44.3702L251.855 38.9796L246.112 31.3624L242.948 30.3468L242.89 28.7452H252.909V30.3272C252.414 30.4184 251.972 30.5095 251.581 30.6007C251.191 30.6788 250.852 30.783 250.566 30.9132L254.648 36.3624L258.398 31.0303L256.269 30.3468L256.249 28.7452H264.648L264.53 30.3272C264.127 30.4574 263.769 30.5681 263.456 30.6593C263.157 30.7374 262.883 30.8025 262.636 30.8546C262.388 30.9067 262.161 30.9522 261.952 30.9913C261.757 31.0173 261.562 31.0434 261.366 31.0694L256.171 38.1202L262.304 46.2061L264.823 47.085V48.6671H255.39V47.0655L257.694 46.1085L253.398 40.7178L249.433 45.9327C249.55 46.0629 249.7 46.1736 249.882 46.2647C250.064 46.3559 250.286 46.4405 250.546 46.5186C250.806 46.5968 251.106 46.6814 251.444 46.7725C251.783 46.8637 252.174 46.9678 252.616 47.085L252.636 48.6671H242.929L242.987 47.0655ZM259.569 31.4014L259.413 31.3624L259.179 31.4014H259.569ZM266.757 38.9796C266.783 37.5473 267.03 36.1866 267.499 34.8975C267.981 33.6085 268.651 32.4757 269.511 31.4991C270.383 30.5225 271.431 29.7478 272.655 29.1749C273.879 28.602 275.26 28.3155 276.796 28.3155C278.046 28.3155 279.107 28.5108 279.98 28.9014C280.865 29.279 281.588 29.8259 282.148 30.5421C282.707 31.2452 283.111 32.0981 283.358 33.1007C283.606 34.0902 283.717 35.197 283.691 36.421C283.677 36.6033 283.664 36.8181 283.651 37.0655C283.651 37.2999 283.645 37.5277 283.632 37.7491C283.619 37.9965 283.599 38.2569 283.573 38.5303H270.819C270.793 39.6501 270.878 40.6137 271.073 41.421C271.282 42.2152 271.555 42.8923 271.894 43.4522C272.245 44.0121 272.649 44.4613 273.105 44.7999C273.56 45.1384 274.023 45.3988 274.491 45.5811C274.973 45.7634 275.448 45.8871 275.917 45.9522C276.386 46.0043 276.816 46.0303 277.206 46.0303C277.779 45.8871 278.378 45.7309 279.003 45.5616C279.55 45.4184 280.155 45.2426 280.819 45.0343C281.483 44.8259 282.161 44.5915 282.851 44.3311L283.515 46.0108C282.799 46.4145 282.128 46.7856 281.503 47.1241C280.878 47.4496 280.273 47.7491 279.687 48.0225C279.114 48.283 278.554 48.5108 278.007 48.7061C277.473 48.9145 276.933 49.0902 276.386 49.2335C274.719 49.2335 273.274 48.9991 272.05 48.5303C270.839 48.0616 269.83 47.391 269.023 46.5186C268.228 45.6332 267.642 44.559 267.265 43.296C266.887 42.0199 266.718 40.5811 266.757 38.9796ZM270.819 36.4991C272.108 36.4861 273.209 36.46 274.12 36.421C275.032 36.3819 275.787 36.3428 276.386 36.3038C276.998 36.2647 277.48 36.2322 277.831 36.2061C278.183 36.1671 278.437 36.1345 278.593 36.1085C278.814 36.0824 278.983 35.9132 279.101 35.6007C279.231 35.2882 279.296 34.9626 279.296 34.6241C279.296 33.7387 279.146 32.99 278.847 32.378C278.547 31.766 278.137 31.2973 277.616 30.9718C277.095 30.6462 276.483 30.477 275.78 30.4639C275.09 30.4379 274.355 30.5681 273.573 30.8546C273.417 30.9067 273.189 31.0434 272.89 31.2647C272.603 31.4861 272.31 31.8181 272.011 32.2608C271.711 32.7035 271.444 33.2764 271.21 33.9796C270.976 34.6697 270.845 35.5095 270.819 36.4991ZM287.226 47.0655C287.942 46.8442 288.508 46.6553 288.925 46.4991C289.355 46.3298 289.674 46.115 289.882 45.8546C290.103 45.5811 290.24 45.2231 290.292 44.7803C290.357 44.3376 290.39 43.7322 290.39 42.9639V35.1319C290.39 34.4418 290.292 33.8884 290.097 33.4718C289.914 33.0421 289.667 32.71 289.355 32.4757C289.055 32.2283 288.71 32.0395 288.319 31.9093C287.929 31.779 287.525 31.6619 287.108 31.5577V30.1514C287.707 30.0343 288.222 29.9366 288.651 29.8585C289.094 29.7673 289.491 29.6827 289.843 29.6046C290.194 29.5134 290.52 29.4223 290.819 29.3311C291.119 29.227 291.425 29.1163 291.737 28.9991C292.05 28.8689 292.388 28.7192 292.753 28.5499C293.118 28.3806 293.541 28.1723 294.023 27.9249L294.804 28.335L294.55 31.46C294.993 31.2126 295.455 30.9522 295.937 30.6788C296.353 30.4444 296.809 30.184 297.304 29.8975C297.812 29.6111 298.319 29.3246 298.827 29.0382C298.957 28.9991 299.146 28.9405 299.394 28.8624C299.641 28.7843 299.921 28.7061 300.233 28.628C300.559 28.5499 300.904 28.4783 301.269 28.4132C301.646 28.3481 302.017 28.3155 302.382 28.3155C303.371 28.3155 304.192 28.4132 304.843 28.6085C305.507 28.8038 306.041 29.0772 306.444 29.4288C306.848 29.7673 307.148 30.1775 307.343 30.6593C307.551 31.141 307.688 31.6619 307.753 32.2218C307.831 32.7817 307.87 33.3806 307.87 34.0186C307.87 34.6436 307.87 35.2817 307.87 35.9327L307.89 45.9913C308.385 46.1736 308.847 46.3363 309.276 46.4796C309.654 46.6098 310.025 46.7335 310.39 46.8507C310.754 46.9548 311.034 47.0264 311.23 47.0655V48.6671H300.663V47.0655C301.197 46.9093 301.646 46.7856 302.011 46.6944C302.375 46.5902 302.668 46.4861 302.89 46.3819C303.124 46.2647 303.3 46.1345 303.417 45.9913C303.547 45.835 303.632 45.6332 303.671 45.3858C303.723 45.1254 303.749 44.7999 303.749 44.4093C303.762 44.0186 303.769 43.5238 303.769 42.9249V33.7257C303.769 33.4652 303.73 33.2113 303.651 32.9639C303.586 32.7165 303.502 32.5343 303.398 32.4171C303.241 32.2738 303.072 32.1501 302.89 32.046C302.72 31.9418 302.506 31.8572 302.245 31.7921C301.985 31.727 301.672 31.6814 301.308 31.6553C300.943 31.6163 300.507 31.5968 299.999 31.5968C299.452 31.5968 298.912 31.6553 298.378 31.7725C297.844 31.8767 297.336 32.0134 296.855 32.1827C296.373 32.3389 295.93 32.5212 295.526 32.7296C295.123 32.9249 294.778 33.1137 294.491 33.296V45.9913L297.87 47.0655V48.6671H287.226V47.0655ZM313.417 47.0655C314.107 46.8832 314.667 46.7139 315.097 46.5577C315.539 46.4014 315.885 46.1866 316.132 45.9132C316.392 45.6397 316.568 45.2751 316.659 44.8194C316.763 44.3637 316.816 43.7452 316.816 42.9639V34.8975C316.816 34.2074 316.724 33.6475 316.542 33.2178C316.36 32.7751 316.119 32.4236 315.819 32.1632C315.52 31.8897 315.175 31.6814 314.784 31.5382C314.394 31.3949 313.99 31.2712 313.573 31.1671V29.7608C314.459 29.5915 315.24 29.4483 315.917 29.3311C316.594 29.2009 317.206 29.0772 317.753 28.96C318.3 28.8298 318.801 28.6866 319.257 28.5303C319.726 28.3611 320.194 28.1593 320.663 27.9249L321.386 28.296C321.295 28.8298 321.217 29.3507 321.151 29.8585C321.099 30.3663 321.054 30.8871 321.015 31.421C320.976 31.9418 320.95 32.4887 320.937 33.0616C320.924 33.6215 320.917 34.2205 320.917 34.8585V45.9913L324.472 47.0655V48.6671H313.417V47.0655ZM318.651 23.921C318.235 23.921 317.857 23.8494 317.519 23.7061C317.18 23.5629 316.894 23.3741 316.659 23.1397C316.425 22.8923 316.243 22.6124 316.112 22.2999C315.982 21.9744 315.917 21.6293 315.917 21.2647C315.917 20.9392 315.982 20.6137 316.112 20.2882C316.243 19.9496 316.444 19.6501 316.718 19.3897C316.991 19.1293 317.33 18.9145 317.733 18.7452C318.15 18.5759 318.632 18.4913 319.179 18.4913C319.543 18.4913 319.888 18.5564 320.214 18.6866C320.552 18.8038 320.839 18.9731 321.073 19.1944C321.321 19.4158 321.516 19.6892 321.659 20.0147C321.802 20.3272 321.874 20.6788 321.874 21.0694C321.874 21.4991 321.783 21.8897 321.601 22.2413C321.431 22.5798 321.197 22.8793 320.898 23.1397C320.598 23.3871 320.253 23.5824 319.862 23.7257C319.472 23.8559 319.068 23.921 318.651 23.921ZM326.952 43.7061C326.952 43.1593 326.998 42.658 327.089 42.2022C327.193 41.7465 327.388 41.3233 327.675 40.9327C327.974 40.529 328.391 40.1514 328.925 39.7999C329.472 39.4353 330.181 39.0772 331.054 38.7257C331.939 38.3741 333.013 38.016 334.276 37.6514C335.539 37.2869 337.05 36.8962 338.808 36.4796V33.4913C338.808 33.1267 338.782 32.7817 338.73 32.4561C338.691 32.1176 338.554 31.8246 338.319 31.5772C338.085 31.3168 337.72 31.1085 337.226 30.9522C336.744 30.783 336.067 30.6918 335.194 30.6788C334.569 30.6788 334.049 30.7699 333.632 30.9522C333.215 31.1215 332.857 31.3884 332.558 31.753C332.271 32.1176 332.017 32.5733 331.796 33.1202C331.588 33.654 331.373 34.279 331.151 34.9952H328.026L328.437 30.9718C328.866 30.7895 329.335 30.5942 329.843 30.3858C330.351 30.1775 330.865 29.9757 331.386 29.7803C331.92 29.585 332.447 29.4027 332.968 29.2335C333.489 29.0512 333.97 28.8949 334.413 28.7647C334.869 28.6215 335.273 28.5108 335.624 28.4327C335.976 28.3546 336.249 28.3155 336.444 28.3155C337.616 28.3155 338.606 28.4067 339.413 28.5889C340.233 28.7712 340.904 29.0837 341.425 29.5264C341.946 29.9561 342.323 30.5356 342.558 31.2647C342.792 31.9809 342.909 32.8728 342.909 33.9405V45.171C342.909 45.5225 343.066 45.7764 343.378 45.9327C343.691 46.0889 344.029 46.1931 344.394 46.2452C344.771 46.2973 345.116 46.3233 345.429 46.3233C345.741 46.3233 345.898 46.3363 345.898 46.3624V47.9835C345.637 48.0876 345.331 48.2048 344.98 48.335C344.641 48.4522 344.276 48.5629 343.886 48.6671C343.495 48.7712 343.098 48.8624 342.694 48.9405C342.304 49.0186 341.926 49.0577 341.562 49.0577C340.637 49.0577 339.98 48.8168 339.589 48.335C339.198 47.8533 339.003 47.1176 339.003 46.128C338.378 46.6488 337.825 47.0981 337.343 47.4757C336.874 47.8402 336.412 48.1397 335.956 48.3741C335.513 48.6085 335.038 48.7777 334.53 48.8819C334.023 48.9991 333.43 49.0577 332.753 49.0577C332.076 49.0577 331.392 48.9535 330.702 48.7452C330.012 48.5369 329.387 48.2178 328.827 47.7882C328.28 47.3455 327.831 46.7856 327.48 46.1085C327.128 45.4314 326.952 44.6306 326.952 43.7061ZM331.249 43.2178C331.249 43.7387 331.34 44.1879 331.523 44.5655C331.718 44.9301 331.978 45.2361 332.304 45.4835C332.629 45.7178 333.013 45.8936 333.456 46.0108C333.912 46.115 334.394 46.1671 334.901 46.1671C335.605 46.1671 336.295 45.9848 336.972 45.6202C337.649 45.2426 338.261 44.7934 338.808 44.2725V38.4718C338.339 38.641 337.825 38.7973 337.265 38.9405C336.705 39.0707 336.145 39.2139 335.585 39.3702C335.025 39.5134 334.485 39.6827 333.964 39.878C333.443 40.0733 332.981 40.3207 332.577 40.6202C332.174 40.9067 331.848 41.2647 331.601 41.6944C331.366 42.1111 331.249 42.6189 331.249 43.2178Z" fill="#1763CF"/>
<path d="M143.632 93.921L145.858 93.96L146.679 98.4522C146.757 98.7387 146.835 98.9731 146.913 99.1553C146.991 99.3246 147.069 99.4613 147.148 99.5655C147.239 99.6697 147.323 99.7543 147.401 99.8194C147.48 99.8715 147.551 99.9171 147.616 99.9561C147.903 100.099 148.3 100.262 148.808 100.444C149.316 100.614 149.882 100.776 150.507 100.933C151.132 101.089 151.783 101.219 152.46 101.323C153.137 101.427 153.801 101.48 154.452 101.48C155.012 101.48 155.52 101.414 155.976 101.284C156.431 101.154 156.842 100.991 157.206 100.796C157.571 100.601 157.89 100.386 158.163 100.151C158.45 99.904 158.704 99.6697 158.925 99.4483C158.99 99.3311 159.062 99.1814 159.14 98.9991C159.218 98.8038 159.289 98.5955 159.355 98.3741C159.433 98.1397 159.498 97.8923 159.55 97.6319C159.602 97.3715 159.628 97.1176 159.628 96.8702C159.628 95.8546 159.394 95.0082 158.925 94.3311C158.456 93.641 157.831 93.0551 157.05 92.5733C156.282 92.0915 155.403 91.6749 154.413 91.3233C153.437 90.9587 152.434 90.5942 151.405 90.2296C150.377 89.865 149.368 89.4613 148.378 89.0186C147.401 88.5629 146.523 88.003 145.741 87.3389C144.973 86.6749 144.355 85.8741 143.886 84.9366C143.417 83.9861 143.183 82.8207 143.183 81.4405C143.183 80.477 143.339 79.6111 143.651 78.8428C143.964 78.0746 144.394 77.391 144.941 76.7921C145.487 76.1931 146.125 75.6788 146.855 75.2491C147.597 74.8194 148.391 74.4678 149.237 74.1944C150.097 73.921 150.989 73.7192 151.913 73.5889C152.838 73.4587 153.762 73.3936 154.687 73.3936C155.442 73.3936 156.112 73.4262 156.698 73.4913C157.284 73.5434 157.851 73.6215 158.398 73.7257C158.944 73.8168 159.511 73.921 160.097 74.0382C160.683 74.1553 161.347 74.266 162.089 74.3702L161.523 82.1046H159.433L158.651 78.8428C158.586 78.5434 158.508 78.296 158.417 78.1007C158.339 77.8923 158.241 77.7165 158.124 77.5733C158.007 77.4171 157.877 77.2934 157.733 77.2022C157.59 77.0981 157.427 77.0004 157.245 76.9093C156.698 76.6879 156.041 76.4926 155.273 76.3233C154.517 76.154 153.671 76.0694 152.733 76.0694C151.952 76.0694 151.236 76.1215 150.585 76.2257C149.947 76.3168 149.4 76.4926 148.944 76.753C148.801 76.9353 148.625 77.1176 148.417 77.2999C148.222 77.4822 148.033 77.7035 147.851 77.9639C147.681 78.2244 147.532 78.5434 147.401 78.921C147.284 79.2856 147.226 79.7413 147.226 80.2882C147.226 81.3559 147.46 82.2478 147.929 82.9639C148.398 83.6671 149.016 84.266 149.784 84.7608C150.552 85.2426 151.425 85.6527 152.401 85.9913C153.378 86.3298 154.374 86.6684 155.39 87.0069C156.418 87.3455 157.421 87.7231 158.398 88.1397C159.374 88.5434 160.246 89.0512 161.015 89.6632C161.783 90.2751 162.401 91.0303 162.87 91.9288C163.339 92.8272 163.573 93.934 163.573 95.2491C163.573 96.9158 163.241 98.322 162.577 99.4678C161.913 100.601 161.015 101.512 159.882 102.202C158.749 102.892 157.434 103.387 155.937 103.687C154.452 103.986 152.883 104.136 151.23 104.136C150.566 104.136 149.862 104.071 149.12 103.941C148.391 103.81 147.655 103.635 146.913 103.413C146.184 103.192 145.468 102.938 144.765 102.651C144.062 102.352 143.398 102.039 142.773 101.714L143.632 93.921ZM170.136 86.3819H167.05V84.4093L168.964 83.6866C169.342 83.5434 169.661 83.3481 169.921 83.1007C170.194 82.8402 170.37 82.6124 170.448 82.4171L171.952 78.6671H174.374L174.237 83.7452H180.468V86.3819H174.237V98.9796C174.237 99.6046 174.407 100.054 174.745 100.327C175.097 100.588 175.585 100.718 176.21 100.718C176.562 100.718 176.952 100.679 177.382 100.601C177.812 100.523 178.241 100.425 178.671 100.308C179.101 100.177 179.517 100.041 179.921 99.8975C180.325 99.7413 180.676 99.5915 180.976 99.4483L181.718 101.323C181.249 101.623 180.702 101.942 180.077 102.28C179.465 102.619 178.827 102.931 178.163 103.218C177.499 103.504 176.829 103.739 176.151 103.921C175.487 104.103 174.862 104.194 174.276 104.194C173.287 104.194 172.512 104.064 171.952 103.804C171.405 103.556 170.995 103.179 170.722 102.671C170.448 102.15 170.279 101.499 170.214 100.718C170.162 99.9366 170.136 99.0186 170.136 97.9639V86.3819ZM183.827 98.7061C183.827 98.1593 183.873 97.658 183.964 97.2022C184.068 96.7465 184.263 96.3233 184.55 95.9327C184.849 95.529 185.266 95.1514 185.8 94.7999C186.347 94.4353 187.056 94.0772 187.929 93.7257C188.814 93.3741 189.888 93.016 191.151 92.6514C192.414 92.2869 193.925 91.8962 195.683 91.4796V88.4913C195.683 88.1267 195.657 87.7817 195.605 87.4561C195.566 87.1176 195.429 86.8246 195.194 86.5772C194.96 86.3168 194.595 86.1085 194.101 85.9522C193.619 85.783 192.942 85.6918 192.069 85.6788C191.444 85.6788 190.924 85.7699 190.507 85.9522C190.09 86.1215 189.732 86.3884 189.433 86.753C189.146 87.1176 188.892 87.5733 188.671 88.1202C188.463 88.654 188.248 89.279 188.026 89.9952H184.901L185.312 85.9718C185.741 85.7895 186.21 85.5942 186.718 85.3858C187.226 85.1775 187.74 84.9757 188.261 84.7803C188.795 84.585 189.322 84.4027 189.843 84.2335C190.364 84.0512 190.845 83.8949 191.288 83.7647C191.744 83.6215 192.148 83.5108 192.499 83.4327C192.851 83.3546 193.124 83.3155 193.319 83.3155C194.491 83.3155 195.481 83.4067 196.288 83.5889C197.108 83.7712 197.779 84.0837 198.3 84.5264C198.821 84.9561 199.198 85.5356 199.433 86.2647C199.667 86.9809 199.784 87.8728 199.784 88.9405V100.171C199.784 100.523 199.941 100.776 200.253 100.933C200.566 101.089 200.904 101.193 201.269 101.245C201.646 101.297 201.991 101.323 202.304 101.323C202.616 101.323 202.773 101.336 202.773 101.362V102.983C202.512 103.088 202.206 103.205 201.855 103.335C201.516 103.452 201.151 103.563 200.761 103.667C200.37 103.771 199.973 103.862 199.569 103.941C199.179 104.019 198.801 104.058 198.437 104.058C197.512 104.058 196.855 103.817 196.464 103.335C196.073 102.853 195.878 102.118 195.878 101.128C195.253 101.649 194.7 102.098 194.218 102.476C193.749 102.84 193.287 103.14 192.831 103.374C192.388 103.608 191.913 103.778 191.405 103.882C190.898 103.999 190.305 104.058 189.628 104.058C188.951 104.058 188.267 103.954 187.577 103.745C186.887 103.537 186.262 103.218 185.702 102.788C185.155 102.345 184.706 101.786 184.355 101.108C184.003 100.431 183.827 99.6306 183.827 98.7061ZM188.124 98.2178C188.124 98.7387 188.215 99.1879 188.398 99.5655C188.593 99.9301 188.853 100.236 189.179 100.483C189.504 100.718 189.888 100.894 190.331 101.011C190.787 101.115 191.269 101.167 191.776 101.167C192.48 101.167 193.17 100.985 193.847 100.62C194.524 100.243 195.136 99.7934 195.683 99.2725V93.4718C195.214 93.641 194.7 93.7973 194.14 93.9405C193.58 94.0707 193.02 94.2139 192.46 94.3702C191.9 94.5134 191.36 94.6827 190.839 94.878C190.318 95.0733 189.856 95.3207 189.452 95.6202C189.049 95.9067 188.723 96.2647 188.476 96.6944C188.241 97.1111 188.124 97.6189 188.124 98.2178ZM207.206 111.714C208.066 111.623 208.847 111.375 209.55 110.972C210.266 110.581 210.904 110.106 211.464 109.546C212.024 108.999 212.512 108.407 212.929 107.769C213.358 107.131 213.717 106.525 214.003 105.952C214.302 105.392 214.53 104.904 214.687 104.487C214.856 104.071 214.96 103.797 214.999 103.667L215.097 103.433L213.769 103.667C213.079 101.948 212.369 100.275 211.64 98.6475C210.924 97.0069 210.22 95.4444 209.53 93.96C208.853 92.4626 208.202 91.0564 207.577 89.7413C206.952 88.4132 206.399 87.2022 205.917 86.1085L203.398 85.3468L203.339 83.7452H214.218L214.101 85.3272C213.567 85.4965 213.118 85.6462 212.753 85.7764C212.401 85.9067 212.108 86.0499 211.874 86.2061C211.64 86.3624 211.457 86.5512 211.327 86.7725C211.21 86.9809 211.119 87.2478 211.054 87.5733L214.96 97.3194C215.129 97.7882 215.292 98.1593 215.448 98.4327C215.605 98.6931 215.754 98.8884 215.898 99.0186C216.041 99.1358 216.184 99.1944 216.327 99.1944C216.483 99.1944 216.64 99.1553 216.796 99.0772L220.839 86.3819L217.343 85.3468L217.284 83.7452H227.089L226.972 85.3272C226.191 85.5095 225.526 85.7178 224.98 85.9522C224.446 86.1736 224.068 86.5056 223.847 86.9483C222.896 89.5264 222.056 91.7921 221.327 93.7452C220.598 95.6983 219.954 97.4171 219.394 98.9014C218.847 100.373 218.365 101.649 217.948 102.73C217.532 103.81 217.161 104.761 216.835 105.581C216.51 106.401 216.217 107.131 215.956 107.769C215.696 108.407 215.435 109.025 215.175 109.624C214.927 110.236 214.667 110.861 214.394 111.499C214.12 112.137 213.808 112.866 213.456 113.687H207.675L207.206 111.714ZM229.003 101.421C229.003 101.043 229.075 100.685 229.218 100.347C229.361 99.9952 229.563 99.6892 229.823 99.4288C230.084 99.1553 230.39 98.9405 230.741 98.7843C231.093 98.628 231.477 98.5499 231.894 98.5499C232.323 98.5499 232.714 98.6345 233.066 98.8038C233.417 98.96 233.717 99.1749 233.964 99.4483C234.224 99.7087 234.426 100.015 234.569 100.366C234.713 100.705 234.784 101.056 234.784 101.421C234.784 101.799 234.713 102.157 234.569 102.495C234.426 102.834 234.224 103.133 233.964 103.394C233.717 103.654 233.411 103.862 233.046 104.019C232.694 104.175 232.31 104.253 231.894 104.253C231.477 104.253 231.093 104.175 230.741 104.019C230.39 103.862 230.084 103.654 229.823 103.394C229.563 103.133 229.361 102.834 229.218 102.495C229.075 102.157 229.003 101.799 229.003 101.421Z" fill="black"/>
</svg>
